999
FreeCAD v1.0 39109 (Git)
  0
SECTION
  2
HEADER
  9
$ACADVER
  1
AC1014
  9
$ACADMAINTVER
 70
     9
  9
$DWGCODEPAGE
  3
ANSI_1252
  9
$TEXTSTYLE
  7
STANDARD
  9
$DIMSTYLE
  2
STANDARD
  9
$DIMTXSTY
  7
STANDARD
  9
$CMLSTYLE
  2
STANDARD
  9
$LUNITS
 70
2
  9
$INSUNITS
 70
4
  9
$PEXTMAX
 10
50
 20
50
 30
50
  9
$PEXTMIN
 10
0
 20
0
 30
0
  9
$HANDSEED
  5
FFFF
  0
ENDSEC
  0
SECTION
  2
CLASSES
  0
CLASS
  1
ACDBDICTIONARYWDFLT
  2
AcDbDictionaryWithDefault
  3
ObjectDBX Classes
 90
        0
280
     0
281
     0
  0
CLASS
  1
XRECORD
  2
AcDbXrecord
  3
ObjectDBX Classes
 90
        0
280
     0
281
     0
  0
CLASS
  1
LWPOLYLINE
  2
AcDbPolyline
  3
ObjectDBX Classes
 90
        0
280
     0
281
     1
  0
ENDSEC
  0
SECTION
  2
TABLES
  0
TABLE
  2
VPORT
  5
20
330
0
100
AcDbSymbolTable
 70
     1
  0
VPORT
  5
21
330
20
100
AcDbSymbolTableRecord
100
AcDbViewportTableRecord
  2
*ACTIVE
 70
     0
  0
ENDTAB
  0
TABLE
  2
LTYPE
  5
22
330
0
100
AcDbSymbolTable
 70
     1
  0
LTYPE
  5
23
330
21
100
AcDbSymbolTableRecord
100
AcDbLinetypeTableRecord
  2
BYBLOCK
 70
     0
  3

 72
    65
 73
     0
 40
0.0
  0
LTYPE
  5
24
330
21
100
AcDbSymbolTableRecord
100
AcDbLinetypeTableRecord
  2
BYLAYER
 70
     0
  3

 72
    65
 73
     0
 40
0.0
  0
LTYPE
  5
25
330
21
100
AcDbSymbolTableRecord
100
AcDbLinetypeTableRecord
  2
CONTINUOUS
 70
     0
  3
Solid line
 72
    65
 73
     0
 40
0.0
  0
ENDTAB
  0
TABLE
  2
LAYER
  5
A55
330
0
100
AcDbSymbolTable
 70
3
  0
LAYER
  5
A56
330
A55
100
AcDbSymbolTableRecord
100
AcDbLayerTableRecord
  2
0
 70
   0
 62
   7
  6
CONTINUOUS
  0
LAYER
  5
A57
330
A55
100
AcDbSymbolTableRecord
100
AcDbLayerTableRecord
  2
none
 70
    0
 62
    7
  6
CONTINUOUS
  0
LAYER
  5
A58
330
A55
100
AcDbSymbolTableRecord
100
AcDbLayerTableRecord
  2
path1
 70
    0
 62
    7
  6
CONTINUOUS
  0
ENDTAB
  0
TABLE
  2
STYLE
  5
70
330
0
100
AcDbSymbolTable
 70
     2
  0
STYLE
  5
71
330
70
100
AcDbSymbolTableRecord
100
AcDbTextStyleTableRecord
  2
STANDARD
 70
     0
 40
0.0
 41
1.0
 50
0.0
 71
     0
 42
2.5
  3
arial.ttf
  4

  0
STYLE
  5
72
330
70
100
AcDbSymbolTableRecord
100
AcDbTextStyleTableRecord
  2
ANNOTATIVE
 70
     0
 40
0.0
 41
1.0
 50
0.0
 71
     0
 42
2.5
  3
arial.ttf
  4

  0
ENDTAB
  0
TABLE
  2
VIEW
  5
73
330
0
100
AcDbSymbolTable
 70
     0
  0
ENDTAB
  0
TABLE
  2
UCS
  5
74
330
0
100
AcDbSymbolTable
 70
     0
  0
ENDTAB
  0
TABLE
  2
APPID
  5
75
330
0
100
AcDbSymbolTable
 70
     2
  0
APPID
  5
76
330
75
100
AcDbSymbolTableRecord
100
AcDbRegAppTableRecord
  2
ACAD
 70
     0
  0
APPID
  5
77
330
75
100
AcDbSymbolTableRecord
100
AcDbRegAppTableRecord
  2
ACADANNOTATIVE
 70
     0
  0
ENDTAB
  0
TABLE
  2
DIMSTYLE
  5
78
330
0
100
AcDbSymbolTable
 70
     2
  0
DIMSTYLE
105
79
330
78
100
AcDbSymbolTableRecord
100
AcDbDimStyleTableRecord
  2
STANDARD
 70
     0
  3

  4

  5

  6

  7

 40
0.0
 41
2.5
 42
0.625
 43
3.75
 44
1.25
 45
0.0
 46
0.0
 47
0.0
 48
0.0
140
2.5
141
2.5
142
0.0
143
0.03937007874016
144
1.0
145
0.0
146
1.0
147
0.625
 71
     0
 72
     0
 73
     0
 74
     0
 75
     0
 76
     0
 77
     1
 78
     8
170
     0
171
     3
172
     1
173
     0
174
     0
175
     0
176
     0
177
     0
178
     0
270
     2
271
     2
272
     2
273
     2
274
     3
340
71
275
     0
280
     0
281
     0
282
     0
283
     0
284
     8
285
     0
286
     0
287
     3
288
     0
  0
ENDTAB
  0
TABLE
  2
BLOCK_RECORD
  5
A01
330
0
100
AcDbSymbolTable
  70
5
  0
BLOCK_RECORD
  5
A02
330
A01
100
AcDbSymbolTableRecord
100
AcDbBlockTableRecord
  2
*MODEL_SPACE
  0
BLOCK_RECORD
  5
A03
330
A01
100
AcDbSymbolTableRecord
100
AcDbBlockTableRecord
  2
*PAPER_SPACE
  0
ENDTAB
  0
ENDSEC
  0
SECTION
  2
BLOCKS
  0
BLOCK
  5
A04
330
A02
100
AcDbEntity
  8
0
100
AcDbBlockBegin
  2
*MODEL_SPACE
 70
   0
 10
0
 20
0
 30
0
  3
*MODEL_SPACE
  1
 
  0
ENDBLK
  5
A05
330
A02
100
AcDbEntity
  8
0
100
AcDbBlockEnd
  0
BLOCK
  5
A06
330
A03
100
AcDbEntity
 67
1
  8
0
100
AcDbBlockBegin
  2
*PAPER_SPACE
 70
   0
 10
0
 20
0
 30
0
  3
*PAPER_SPACE
  1
 
  0
ENDBLK
  5
A07
330
A03
100
AcDbEntity
 67
    1
  8
0
100
AcDbBlockEnd
  0
ENDSEC
  0
SECTION
  2
ENTITIES
  0
SPLINE
  5
A08
330
A02
100
AcDbEntity
  8
path1
100
AcDbSpline
210
0
220
0
230
1
 70
8
 71
3
 72
8
 73
4
 74
0
 40
0.000000000
 40
0.000000000
 40
0.000000000
 40
0.000000000
 40
1.000000000
 40
1.000000000
 40
1.000000000
 40
1.000000000
 10
48.195740646
 20
-76.691294208
 30
0.000000000
 10
47.287254083
 20
-76.637607604
 30
0.000000000
 10
45.872601083
 20
-76.151171146
 30
0.000000000
 10
45.067989938
 20
-75.615802646
 30
0.000000000
  0
SPLINE
  5
A09
330
A02
100
AcDbEntity
  8
path1
100
AcDbSpline
210
0
220
0
230
1
 70
8
 71
3
 72
8
 73
4
 74
0
 40
0.000000000
 40
0.000000000
 40
0.000000000
 40
0.000000000
 40
1.000000000
 40
1.000000000
 40
1.000000000
 40
1.000000000
 10
45.067989938
 20
-75.615802646
 30
0.000000000
 10
44.542246979
 20
-75.265983792
 30
0.000000000
 10
44.256026021
 20
-74.962702500
 30
0.000000000
 10
43.927492896
 20
-74.407312979
 30
0.000000000
  0
SPLINE
  5
A0A
330
A02
100
AcDbEntity
  8
path1
100
AcDbSpline
210
0
220
0
230
1
 70
8
 71
3
 72
8
 73
4
 74
0
 40
0.000000000
 40
0.000000000
 40
0.000000000
 40
0.000000000
 40
1.000000000
 40
1.000000000
 40
1.000000000
 40
1.000000000
 10
43.927492896
 20
-74.407312979
 30
0.000000000
 10
43.843310417
 20
-74.265004187
 30
0.000000000
 10
43.741321479
 20
-74.127860063
 30
0.000000000
 10
43.700850813
 20
-74.102552667
 30
0.000000000
  0
SPLINE
  5
A0B
330
A02
100
AcDbEntity
  8
path1
100
AcDbSpline
210
0
220
0
230
1
 70
8
 71
3
 72
8
 73
4
 74
0
 40
0.000000000
 40
0.000000000
 40
0.000000000
 40
0.000000000
 40
1.000000000
 40
1.000000000
 40
1.000000000
 40
1.000000000
 10
43.700850813
 20
-74.102552667
 30
0.000000000
 10
43.638647271
 20
-74.063650979
 30
0.000000000
 10
42.158658063
 20
-73.690236583
 30
0.000000000
 10
41.334211104
 20
-73.505425125
 30
0.000000000
  0
SPLINE
  5
A0C
330
A02
100
AcDbEntity
  8
path1
100
AcDbSpline
210
0
220
0
230
1
 70
8
 71
3
 72
8
 73
4
 74
0
 40
0.000000000
 40
0.000000000
 40
0.000000000
 40
0.000000000
 40
1.000000000
 40
1.000000000
 40
1.000000000
 40
1.000000000
 10
41.334211104
 20
-73.505425125
 30
0.000000000
 10
39.427258479
 20
-73.077956354
 30
0.000000000
 10
37.294356979
 20
-72.770081896
 30
0.000000000
 10
34.913654667
 20
-72.578647917
 30
0.000000000
  0
SPLINE
  5
A0D
330
A02
100
AcDbEntity
  8
path1
100
AcDbSpline
210
0
220
0
230
1
 70
8
 71
3
 72
8
 73
4
 74
0
 40
0.000000000
 40
0.000000000
 40
0.000000000
 40
0.000000000
 40
1.000000000
 40
1.000000000
 40
1.000000000
 40
1.000000000
 10
34.913654667
 20
-72.578647917
 30
0.000000000
 10
33.946039021
 20
-72.500841896
 30
0.000000000
 10
30.978117813
 20
-72.489388083
 30
0.000000000
 10
30.062961104
 20
-72.559926000
 30
0.000000000
  0
SPLINE
  5
A0E
330
A02
100
AcDbEntity
  8
path1
100
AcDbSpline
210
0
220
0
230
1
 70
8
 71
3
 72
8
 73
4
 74
0
 40
0.000000000
 40
0.000000000
 40
0.000000000
 40
0.000000000
 40
1.000000000
 40
1.000000000
 40
1.000000000
 40
1.000000000
 10
30.062961104
 20
-72.559926000
 30
0.000000000
 10
28.727728083
 20
-72.662843625
 30
0.000000000
 10
26.995675625
 20
-72.948770896
 30
0.000000000
 10
26.882677375
 20
-73.084925479
 30
0.000000000
  0
SPLINE
  5
A0F
330
A02
100
AcDbEntity
  8
path1
100
AcDbSpline
210
0
220
0
230
1
 70
8
 71
3
 72
8
 73
4
 74
0
 40
0.000000000
 40
0.000000000
 40
0.000000000
 40
0.000000000
 40
1.000000000
 40
1.000000000
 40
1.000000000
 40
1.000000000
 10
26.882677375
 20
-73.084925479
 30
0.000000000
 10
26.859312021
 20
-73.113079792
 30
0.000000000
 10
26.773957437
 20
-73.291988396
 30
0.000000000
 10
26.693002875
 20
-73.482498979
 30
0.000000000
  0
SPLINE
  5
A10
330
A02
100
AcDbEntity
  8
path1
100
AcDbSpline
210
0
220
0
230
1
 70
8
 71
3
 72
8
 73
4
 74
0
 40
0.000000000
 40
0.000000000
 40
0.000000000
 40
0.000000000
 40
1.000000000
 40
1.000000000
 40
1.000000000
 40
1.000000000
 10
26.693002875
 20
-73.482498979
 30
0.000000000
 10
26.407616413
 20
-74.154098792
 30
0.000000000
 10
26.063930600
 20
-74.667755583
 30
0.000000000
 10
25.568392475
 20
-75.163296354
 30
0.000000000
  0
SPLINE
  5
A11
330
A02
100
AcDbEntity
  8
path1
100
AcDbSpline
210
0
220
0
230
1
 70
8
 71
3
 72
8
 73
4
 74
0
 40
0.000000000
 40
0.000000000
 40
0.000000000
 40
0.000000000
 40
1.000000000
 40
1.000000000
 40
1.000000000
 40
1.000000000
 10
25.568392475
 20
-75.163296354
 30
0.000000000
 10
25.180510662
 20
-75.551178167
 30
0.000000000
 10
24.778695892
 20
-75.840209000
 30
0.000000000
 10
24.304297975
 20
-76.072581958
 30
0.000000000
  0
SPLINE
  5
A12
330
A02
100
AcDbEntity
  8
path1
100
AcDbSpline
210
0
220
0
230
1
 70
8
 71
3
 72
8
 73
4
 74
0
 40
0.000000000
 40
0.000000000
 40
0.000000000
 40
0.000000000
 40
1.000000000
 40
1.000000000
 40
1.000000000
 40
1.000000000
 10
24.304297975
 20
-76.072581958
 30
0.000000000
 10
23.502988829
 20
-76.465080750
 30
0.000000000
 10
23.106217017
 20
-76.553419833
 30
0.000000000
 10
22.144617996
 20
-76.553419833
 30
0.000000000
  0
SPLINE
  5
A13
330
A02
100
AcDbEntity
  8
path1
100
AcDbSpline
210
0
220
0
230
1
 70
8
 71
3
 72
8
 73
4
 74
0
 40
0.000000000
 40
0.000000000
 40
0.000000000
 40
0.000000000
 40
1.000000000
 40
1.000000000
 40
1.000000000
 40
1.000000000
 10
22.144617996
 20
-76.553419833
 30
0.000000000
 10
21.017194017
 20
-76.553419833
 30
0.000000000
 10
20.565880996
 20
-76.440731146
 30
0.000000000
 10
18.862268600
 20
-75.733843854
 30
0.000000000
  0
SPLINE
  5
A14
330
A02
100
AcDbEntity
  8
path1
100
AcDbSpline
210
0
220
0
230
1
 70
8
 71
3
 72
8
 73
4
 74
0
 40
0.000000000
 40
0.000000000
 40
0.000000000
 40
0.000000000
 40
1.000000000
 40
1.000000000
 40
1.000000000
 40
1.000000000
 10
18.862268600
 20
-75.733843854
 30
0.000000000
 10
17.370775308
 20
-75.114972854
 30
0.000000000
 10
16.697132913
 20
-74.872680667
 30
0.000000000
 10
15.563795496
 20
-74.547454833
 30
0.000000000
  0
SPLINE
  5
A15
330
A02
100
AcDbEntity
  8
path1
100
AcDbSpline
210
0
220
0
230
1
 70
8
 71
3
 72
8
 73
4
 74
0
 40
0.000000000
 40
0.000000000
 40
0.000000000
 40
0.000000000
 40
1.000000000
 40
1.000000000
 40
1.000000000
 40
1.000000000
 10
15.563795496
 20
-74.547454833
 30
0.000000000
 10
14.827573850
 20
-74.336187687
 30
0.000000000
 10
14.137654288
 20
-74.169825625
 30
0.000000000
 10
11.789072392
 20
-73.637251125
 30
0.000000000
  0
SPLINE
  5
A16
330
A02
100
AcDbEntity
  8
path1
100
AcDbSpline
210
0
220
0
230
1
 70
8
 71
3
 72
8
 73
4
 74
0
 40
0.000000000
 40
0.000000000
 40
0.000000000
 40
0.000000000
 40
1.000000000
 40
1.000000000
 40
1.000000000
 40
1.000000000
 10
11.789072392
 20
-73.637251125
 30
0.000000000
 10
10.330543538
 20
-73.306508729
 30
0.000000000
 10
9.387430954
 20
-73.053395083
 30
0.000000000
 10
8.190739058
 20
-72.671524604
 30
0.000000000
  0
SPLINE
  5
A17
330
A02
100
AcDbEntity
  8
path1
100
AcDbSpline
210
0
220
0
230
1
 70
8
 71
3
 72
8
 73
4
 74
0
 40
0.000000000
 40
0.000000000
 40
0.000000000
 40
0.000000000
 40
1.000000000
 40
1.000000000
 40
1.000000000
 40
1.000000000
 10
8.190739058
 20
-72.671524604
 30
0.000000000
 10
7.754176558
 20
-72.532213542
 30
0.000000000
 10
7.047739058
 20
-72.315728812
 30
0.000000000
 10
6.620878829
 20
-72.190445958
 30
0.000000000
  0
SPLINE
  5
A18
330
A02
100
AcDbEntity
  8
path1
100
AcDbSpline
210
0
220
0
230
1
 70
8
 71
3
 72
8
 73
4
 74
0
 40
0.000000000
 40
0.000000000
 40
0.000000000
 40
0.000000000
 40
1.000000000
 40
1.000000000
 40
1.000000000
 40
1.000000000
 10
6.620878829
 20
-72.190445958
 30
0.000000000
 10
6.194015954
 20
-72.065160458
 30
0.000000000
 10
5.717765954
 20
-71.923073917
 30
0.000000000
 10
5.562545496
 20
-71.874692208
 30
0.000000000
  0
SPLINE
  5
A19
330
A02
100
AcDbEntity
  8
path1
100
AcDbSpline
210
0
220
0
230
1
 70
8
 71
3
 72
8
 73
4
 74
0
 40
0.000000000
 40
0.000000000
 40
0.000000000
 40
0.000000000
 40
1.000000000
 40
1.000000000
 40
1.000000000
 40
1.000000000
 10
5.562545496
 20
-71.874692208
 30
0.000000000
 10
4.244277558
 20
-71.463807521
 30
0.000000000
 10
3.700784763
 20
-70.604438208
 30
0.000000000
 10
4.008991538
 20
-69.418215875
 30
0.000000000
  0
SPLINE
  5
A1A
330
A02
100
AcDbEntity
  8
path1
100
AcDbSpline
210
0
220
0
230
1
 70
8
 71
3
 72
8
 73
4
 74
0
 40
0.000000000
 40
0.000000000
 40
0.000000000
 40
0.000000000
 40
1.000000000
 40
1.000000000
 40
1.000000000
 40
1.000000000
 10
4.008991538
 20
-69.418215875
 30
0.000000000
 10
4.120701267
 20
-68.988262667
 30
0.000000000
 10
4.167527225
 20
-68.872869937
 30
0.000000000
 10
4.549950683
 20
-68.085099521
 30
0.000000000
  0
SPLINE
  5
A1B
330
A02
100
AcDbEntity
  8
path1
100
AcDbSpline
210
0
220
0
230
1
 70
8
 71
3
 72
8
 73
4
 74
0
 40
0.000000000
 40
0.000000000
 40
0.000000000
 40
0.000000000
 40
1.000000000
 40
1.000000000
 40
1.000000000
 40
1.000000000
 10
4.549950683
 20
-68.085099521
 30
0.000000000
 10
4.724644475
 20
-67.725239729
 30
0.000000000
 10
4.918062829
 20
-67.288677229
 30
0.000000000
 10
4.979768954
 20
-67.114959750
 30
0.000000000
  0
SPLINE
  5
A1C
330
A02
100
AcDbEntity
  8
path1
100
AcDbSpline
210
0
220
0
230
1
 70
8
 71
3
 72
8
 73
4
 74
0
 40
0.000000000
 40
0.000000000
 40
0.000000000
 40
0.000000000
 40
1.000000000
 40
1.000000000
 40
1.000000000
 40
1.000000000
 10
4.979768954
 20
-67.114959750
 30
0.000000000
 10
5.331932017
 20
-66.123550125
 30
0.000000000
 10
5.410301600
 20
-64.711127562
 30
0.000000000
 10
5.209675996
 20
-62.971476271
 30
0.000000000
  0
SPLINE
  5
A1D
330
A02
100
AcDbEntity
  8
path1
100
AcDbSpline
210
0
220
0
230
1
 70
8
 71
3
 72
8
 73
4
 74
0
 40
0.000000000
 40
0.000000000
 40
0.000000000
 40
0.000000000
 40
1.000000000
 40
1.000000000
 40
1.000000000
 40
1.000000000
 10
5.209675996
 20
-62.971476271
 30
0.000000000
 10
4.998628454
 20
-61.141448604
 30
0.000000000
 10
4.965383558
 20
-60.274295250
 30
0.000000000
 10
5.084202642
 20
-59.698498417
 30
0.000000000
  0
SPLINE
  5
A1E
330
A02
100
AcDbEntity
  8
path1
100
AcDbSpline
210
0
220
0
230
1
 70
8
 71
3
 72
8
 73
4
 74
0
 40
0.000000000
 40
0.000000000
 40
0.000000000
 40
0.000000000
 40
1.000000000
 40
1.000000000
 40
1.000000000
 40
1.000000000
 10
5.084202642
 20
-59.698498417
 30
0.000000000
 10
5.252154850
 20
-58.884600396
 30
0.000000000
 10
5.760207767
 20
-58.260300146
 30
0.000000000
 10
6.438223725
 20
-58.034671417
 30
0.000000000
  0
SPLINE
  5
A1F
330
A02
100
AcDbEntity
  8
path1
100
AcDbSpline
210
0
220
0
230
1
 70
8
 71
3
 72
8
 73
4
 74
0
 40
0.000000000
 40
0.000000000
 40
0.000000000
 40
0.000000000
 40
1.000000000
 40
1.000000000
 40
1.000000000
 40
1.000000000
 10
6.438223725
 20
-58.034671417
 30
0.000000000
 10
6.934838704
 20
-57.869410021
 30
0.000000000
 10
7.101393913
 20
-57.851592979
 30
0.000000000
 10
8.437682621
 20
-57.820806063
 30
0.000000000
  0
SPLINE
  5
A20
330
A02
100
AcDbEntity
  8
path1
100
AcDbSpline
210
0
220
0
230
1
 70
8
 71
3
 72
8
 73
4
 74
0
 40
0.000000000
 40
0.000000000
 40
0.000000000
 40
0.000000000
 40
1.000000000
 40
1.000000000
 40
1.000000000
 40
1.000000000
 10
8.437682621
 20
-57.820806063
 30
0.000000000
 10
9.807840642
 20
-57.789235979
 30
0.000000000
 10
10.003156058
 20
-57.766667021
 30
0.000000000
 10
10.391106663
 20
-57.595097958
 30
0.000000000
  0
SPLINE
  5
A21
330
A02
100
AcDbEntity
  8
path1
100
AcDbSpline
210
0
220
0
230
1
 70
8
 71
3
 72
8
 73
4
 74
0
 40
0.000000000
 40
0.000000000
 40
0.000000000
 40
0.000000000
 40
1.000000000
 40
1.000000000
 40
1.000000000
 40
1.000000000
 10
10.391106663
 20
-57.595097958
 30
0.000000000
 10
10.813072100
 20
-57.408484688
 30
0.000000000
 10
11.276389267
 20
-57.011289542
 30
0.000000000
 10
11.575955808
 20
-56.579346667
 30
0.000000000
  0
SPLINE
  5
A22
330
A02
100
AcDbEntity
  8
path1
100
AcDbSpline
210
0
220
0
230
1
 70
8
 71
3
 72
8
 73
4
 74
0
 40
0.000000000
 40
0.000000000
 40
0.000000000
 40
0.000000000
 40
1.000000000
 40
1.000000000
 40
1.000000000
 40
1.000000000
 10
11.575955808
 20
-56.579346667
 30
0.000000000
 10
11.830021954
 20
-56.213004583
 30
0.000000000
 10
12.565182621
 20
-54.931018958
 30
0.000000000
 10
12.565182621
 20
-54.854313604
 30
0.000000000
  0
SPLINE
  5
A23
330
A02
100
AcDbEntity
  8
path1
100
AcDbSpline
210
0
220
0
230
1
 70
8
 71
3
 72
8
 73
4
 74
0
 40
0.000000000
 40
0.000000000
 40
0.000000000
 40
0.000000000
 40
1.000000000
 40
1.000000000
 40
1.000000000
 40
1.000000000
 10
12.565182621
 20
-54.854313604
 30
0.000000000
 10
12.565182621
 20
-54.812829583
 30
0.000000000
 10
12.503280704
 20
-54.585258813
 30
0.000000000
 10
12.427623100
 20
-54.348602250
 30
0.000000000
  0
SPLINE
  5
A24
330
A02
100
AcDbEntity
  8
path1
100
AcDbSpline
210
0
220
0
230
1
 70
8
 71
3
 72
8
 73
4
 74
0
 40
0.000000000
 40
0.000000000
 40
0.000000000
 40
0.000000000
 40
1.000000000
 40
1.000000000
 40
1.000000000
 40
1.000000000
 10
12.427623100
 20
-54.348602250
 30
0.000000000
 10
12.161076558
 20
-53.514841958
 30
0.000000000
 10
12.046128329
 20
-52.729077083
 30
0.000000000
 10
12.107641308
 20
-52.161270667
 30
0.000000000
  0
SPLINE
  5
A25
330
A02
100
AcDbEntity
  8
path1
100
AcDbSpline
210
0
220
0
230
1
 70
8
 71
3
 72
8
 73
4
 74
0
 40
0.000000000
 40
0.000000000
 40
0.000000000
 40
0.000000000
 40
1.000000000
 40
1.000000000
 40
1.000000000
 40
1.000000000
 10
12.107641308
 20
-52.161270667
 30
0.000000000
 10
12.216480308
 20
-51.156647750
 30
0.000000000
 10
12.379278433
 20
-50.732682063
 30
0.000000000
 10
13.408854204
 20
-48.772624917
 30
0.000000000
  0
SPLINE
  5
A26
330
A02
100
AcDbEntity
  8
path1
100
AcDbSpline
210
0
220
0
230
1
 70
8
 71
3
 72
8
 73
4
 74
0
 40
0.000000000
 40
0.000000000
 40
0.000000000
 40
0.000000000
 40
1.000000000
 40
1.000000000
 40
1.000000000
 40
1.000000000
 10
13.408854204
 20
-48.772624917
 30
0.000000000
 10
15.274238142
 20
-45.221400646
 30
0.000000000
 10
15.884592204
 20
-43.775846958
 30
0.000000000
 10
16.514715933
 20
-41.416753167
 30
0.000000000
  0
SPLINE
  5
A27
330
A02
100
AcDbEntity
  8
path1
100
AcDbSpline
210
0
220
0
230
1
 70
8
 71
3
 72
8
 73
4
 74
0
 40
0.000000000
 40
0.000000000
 40
0.000000000
 40
0.000000000
 40
1.000000000
 40
1.000000000
 40
1.000000000
 40
1.000000000
 10
16.514715933
 20
-41.416753167
 30
0.000000000
 10
17.100450517
 20
-39.223841521
 30
0.000000000
 10
17.443604517
 20
-38.425837021
 30
0.000000000
 10
18.403383204
 20
-37.024669833
 30
0.000000000
  0
SPLINE
  5
A28
330
A02
100
AcDbEntity
  8
path1
100
AcDbSpline
210
0
220
0
230
1
 70
8
 71
3
 72
8
 73
4
 74
0
 40
0.000000000
 40
0.000000000
 40
0.000000000
 40
0.000000000
 40
1.000000000
 40
1.000000000
 40
1.000000000
 40
1.000000000
 10
18.403383204
 20
-37.024669833
 30
0.000000000
 10
19.028810579
 20
-36.111616562
 30
0.000000000
 10
20.068271183
 20
-34.828747229
 30
0.000000000
 10
21.134811892
 20
-33.653637396
 30
0.000000000
  0
SPLINE
  5
A29
330
A02
100
AcDbEntity
  8
path1
100
AcDbSpline
210
0
220
0
230
1
 70
8
 71
3
 72
8
 73
4
 74
0
 40
0.000000000
 40
0.000000000
 40
0.000000000
 40
0.000000000
 40
1.000000000
 40
1.000000000
 40
1.000000000
 40
1.000000000
 10
21.134811892
 20
-33.653637396
 30
0.000000000
 10
21.320718725
 20
-33.448807562
 30
0.000000000
 10
21.703009892
 20
-33.012856250
 30
0.000000000
 10
21.984351933
 20
-32.684860229
 30
0.000000000
  0
SPLINE
  5
A2A
330
A02
100
AcDbEntity
  8
path1
100
AcDbSpline
210
0
220
0
230
1
 70
8
 71
3
 72
8
 73
4
 74
0
 40
0.000000000
 40
0.000000000
 40
0.000000000
 40
0.000000000
 40
1.000000000
 40
1.000000000
 40
1.000000000
 40
1.000000000
 10
21.984351933
 20
-32.684860229
 30
0.000000000
 10
22.265691329
 20
-32.356864208
 30
0.000000000
 10
22.679785413
 20
-31.881513792
 30
0.000000000
 10
22.904559538
 20
-31.628529792
 30
0.000000000
  0
SPLINE
  5
A2B
330
A02
100
AcDbEntity
  8
path1
100
AcDbSpline
210
0
220
0
230
1
 70
8
 71
3
 72
8
 73
4
 74
0
 40
0.000000000
 40
0.000000000
 40
0.000000000
 40
0.000000000
 40
1.000000000
 40
1.000000000
 40
1.000000000
 40
1.000000000
 10
22.904559538
 20
-31.628529792
 30
0.000000000
 10
23.827603475
 20
-30.589635396
 30
0.000000000
 10
24.192903100
 20
-29.943017542
 30
0.000000000
 10
24.404688829
 20
-28.973129125
 30
0.000000000
  0
SPLINE
  5
A2C
330
A02
100
AcDbEntity
  8
path1
100
AcDbSpline
210
0
220
0
230
1
 70
8
 71
3
 72
8
 73
4
 74
0
 40
0.000000000
 40
0.000000000
 40
0.000000000
 40
0.000000000
 40
1.000000000
 40
1.000000000
 40
1.000000000
 40
1.000000000
 10
24.404688829
 20
-28.973129125
 30
0.000000000
 10
24.485249162
 20
-28.604191479
 30
0.000000000
 10
24.486632933
 20
-27.309738688
 30
0.000000000
 10
24.407371704
 20
-26.458973625
 30
0.000000000
  0
SPLINE
  5
A2D
330
A02
100
AcDbEntity
  8
path1
100
AcDbSpline
210
0
220
0
230
1
 70
8
 71
3
 72
8
 73
4
 74
0
 40
0.000000000
 40
0.000000000
 40
0.000000000
 40
0.000000000
 40
1.000000000
 40
1.000000000
 40
1.000000000
 40
1.000000000
 10
24.407371704
 20
-26.458973625
 30
0.000000000
 10
24.375738121
 20
-26.119424573
 30
0.000000000
 10
24.325395850
 20
-25.468549573
 30
0.000000000
 10
24.295503225
 20
-25.012584383
 30
0.000000000
  0
SPLINE
  5
A2E
330
A02
100
AcDbEntity
  8
path1
100
AcDbSpline
210
0
220
0
230
1
 70
8
 71
3
 72
8
 73
4
 74
0
 40
0.000000000
 40
0.000000000
 40
0.000000000
 40
0.000000000
 40
1.000000000
 40
1.000000000
 40
1.000000000
 40
1.000000000
 10
24.295503225
 20
-25.012584383
 30
0.000000000
 10
24.265607954
 20
-24.556618929
 30
0.000000000
 10
24.232971600
 20
-24.104181429
 30
0.000000000
 10
24.222978288
 20
-24.007167717
 30
0.000000000
  0
SPLINE
  5
A2F
330
A02
100
AcDbEntity
  8
path1
100
AcDbSpline
210
0
220
0
230
1
 70
8
 71
3
 72
8
 73
4
 74
0
 40
0.000000000
 40
0.000000000
 40
0.000000000
 40
0.000000000
 40
1.000000000
 40
1.000000000
 40
1.000000000
 40
1.000000000
 10
24.222978288
 20
-24.007167717
 30
0.000000000
 10
24.177210663
 20
-23.562906106
 30
0.000000000
 10
24.064289142
 20
-20.998437969
 30
0.000000000
 10
24.027252767
 20
-19.562167452
 30
0.000000000
  0
SPLINE
  5
A30
330
A02
100
AcDbEntity
  8
path1
100
AcDbSpline
210
0
220
0
230
1
 70
8
 71
3
 72
8
 73
4
 74
0
 40
0.000000000
 40
0.000000000
 40
0.000000000
 40
0.000000000
 40
1.000000000
 40
1.000000000
 40
1.000000000
 40
1.000000000
 10
24.027252767
 20
-19.562167452
 30
0.000000000
 10
23.975796600
 20
-17.566776260
 30
0.000000000
 10
24.003350308
 20
-14.413465479
 30
0.000000000
 10
24.078576642
 20
-13.688417452
 30
0.000000000
  0
SPLINE
  5
A31
330
A02
100
AcDbEntity
  8
path1
100
AcDbSpline
210
0
220
0
230
1
 70
8
 71
3
 72
8
 73
4
 74
0
 40
0.000000000
 40
0.000000000
 40
0.000000000
 40
0.000000000
 40
1.000000000
 40
1.000000000
 40
1.000000000
 40
1.000000000
 10
24.078576642
 20
-13.688417452
 30
0.000000000
 10
24.369155288
 20
-10.887804192
 30
0.000000000
 10
25.268042767
 20
-8.823952327
 30
0.000000000
 10
26.922613583
 20
-7.158496552
 30
0.000000000
  0
SPLINE
  5
A32
330
A02
100
AcDbEntity
  8
path1
100
AcDbSpline
210
0
220
0
230
1
 70
8
 71
3
 72
8
 73
4
 74
0
 40
0.000000000
 40
0.000000000
 40
0.000000000
 40
0.000000000
 40
1.000000000
 40
1.000000000
 40
1.000000000
 40
1.000000000
 10
26.922613583
 20
-7.158496552
 30
0.000000000
 10
28.427084687
 20
-5.644126063
 30
0.000000000
 10
30.174043771
 20
-4.829896783
 30
0.000000000
 10
32.638238000
 20
-4.494536085
 30
0.000000000
  0
SPLINE
  5
A33
330
A02
100
AcDbEntity
  8
path1
100
AcDbSpline
210
0
220
0
230
1
 70
8
 71
3
 72
8
 73
4
 74
0
 40
0.000000000
 40
0.000000000
 40
0.000000000
 40
0.000000000
 40
1.000000000
 40
1.000000000
 40
1.000000000
 40
1.000000000
 10
32.638238000
 20
-4.494536085
 30
0.000000000
 10
33.261090979
 20
-4.409770200
 30
0.000000000
 10
34.679688917
 20
-4.409538690
 30
0.000000000
 10
35.284071333
 20
-4.494104815
 30
0.000000000
  0
SPLINE
  5
A34
330
A02
100
AcDbEntity
  8
path1
100
AcDbSpline
210
0
220
0
230
1
 70
8
 71
3
 72
8
 73
4
 74
0
 40
0.000000000
 40
0.000000000
 40
0.000000000
 40
0.000000000
 40
1.000000000
 40
1.000000000
 40
1.000000000
 40
1.000000000
 10
35.284071333
 20
-4.494104815
 30
0.000000000
 10
37.260604083
 20
-4.770661073
 30
0.000000000
 10
38.922266792
 20
-5.377999679
 30
0.000000000
 10
40.392873875
 20
-6.361374438
 30
0.000000000
  0
SPLINE
  5
A35
330
A02
100
AcDbEntity
  8
path1
100
AcDbSpline
210
0
220
0
230
1
 70
8
 71
3
 72
8
 73
4
 74
0
 40
0.000000000
 40
0.000000000
 40
0.000000000
 40
0.000000000
 40
1.000000000
 40
1.000000000
 40
1.000000000
 40
1.000000000
 10
40.392873875
 20
-6.361374438
 30
0.000000000
 10
43.042929958
 20
-8.133431631
 30
0.000000000
 10
45.065524021
 20
-11.396787383
 30
0.000000000
 10
45.494805188
 20
-14.593091633
 30
0.000000000
  0
SPLINE
  5
A36
330
A02
100
AcDbEntity
  8
path1
100
AcDbSpline
210
0
220
0
230
1
 70
8
 71
3
 72
8
 73
4
 74
0
 40
0.000000000
 40
0.000000000
 40
0.000000000
 40
0.000000000
 40
1.000000000
 40
1.000000000
 40
1.000000000
 40
1.000000000
 10
45.494805188
 20
-14.593091633
 30
0.000000000
 10
45.634039521
 20
-15.629783108
 30
0.000000000
 10
45.690364021
 20
-16.782768219
 30
0.000000000
 10
45.691028125
 20
-18.609668246
 30
0.000000000
  0
SPLINE
  5
A37
330
A02
100
AcDbEntity
  8
path1
100
AcDbSpline
210
0
220
0
230
1
 70
8
 71
3
 72
8
 73
4
 74
0
 40
0.000000000
 40
0.000000000
 40
0.000000000
 40
0.000000000
 40
1.000000000
 40
1.000000000
 40
1.000000000
 40
1.000000000
 10
45.691028125
 20
-18.609668246
 30
0.000000000
 10
45.692086458
 20
-21.517968510
 30
0.000000000
 10
45.851804833
 20
-23.457036525
 30
0.000000000
 10
46.202465063
 20
-24.818557223
 30
0.000000000
  0
SPLINE
  5
A38
330
A02
100
AcDbEntity
  8
path1
100
AcDbSpline
210
0
220
0
230
1
 70
8
 71
3
 72
8
 73
4
 74
0
 40
0.000000000
 40
0.000000000
 40
0.000000000
 40
0.000000000
 40
1.000000000
 40
1.000000000
 40
1.000000000
 40
1.000000000
 10
46.202465063
 20
-24.818557223
 30
0.000000000
 10
46.840640062
 20
-27.296432792
 30
0.000000000
 10
48.260526521
 20
-30.014023771
 30
0.000000000
 10
50.331213896
 20
-32.720780063
 30
0.000000000
  0
SPLINE
  5
A39
330
A02
100
AcDbEntity
  8
path1
100
AcDbSpline
210
0
220
0
230
1
 70
8
 71
3
 72
8
 73
4
 74
0
 40
0.000000000
 40
0.000000000
 40
0.000000000
 40
0.000000000
 40
1.000000000
 40
1.000000000
 40
1.000000000
 40
1.000000000
 10
50.331213896
 20
-32.720780063
 30
0.000000000
 10
51.079913292
 20
-33.699463229
 30
0.000000000
 10
51.298268625
 20
-33.963927500
 30
0.000000000
 10
51.831271750
 20
-34.537586500
 30
0.000000000
  0
SPLINE
  5
A3A
330
A02
100
AcDbEntity
  8
path1
100
AcDbSpline
210
0
220
0
230
1
 70
8
 71
3
 72
8
 73
4
 74
0
 40
0.000000000
 40
0.000000000
 40
0.000000000
 40
0.000000000
 40
1.000000000
 40
1.000000000
 40
1.000000000
 40
1.000000000
 10
51.831271750
 20
-34.537586500
 30
0.000000000
 10
53.292607833
 20
-36.110391542
 30
0.000000000
 10
53.666001063
 20
-36.564689063
 30
0.000000000
 10
54.257178125
 20
-37.489122063
 30
0.000000000
  0
SPLINE
  5
A3B
330
A02
100
AcDbEntity
  8
path1
100
AcDbSpline
210
0
220
0
230
1
 70
8
 71
3
 72
8
 73
4
 74
0
 40
0.000000000
 40
0.000000000
 40
0.000000000
 40
0.000000000
 40
1.000000000
 40
1.000000000
 40
1.000000000
 40
1.000000000
 10
54.257178125
 20
-37.489122063
 30
0.000000000
 10
55.159865021
 20
-38.900666208
 30
0.000000000
 10
55.889104313
 20
-40.364349146
 30
0.000000000
 10
56.519630208
 20
-42.030184333
 30
0.000000000
  0
SPLINE
  5
A3C
330
A02
100
AcDbEntity
  8
path1
100
AcDbSpline
210
0
220
0
230
1
 70
8
 71
3
 72
8
 73
4
 74
0
 40
0.000000000
 40
0.000000000
 40
0.000000000
 40
0.000000000
 40
1.000000000
 40
1.000000000
 40
1.000000000
 40
1.000000000
 10
56.519630208
 20
-42.030184333
 30
0.000000000
 10
57.567996687
 20
-44.799937917
 30
0.000000000
 10
58.157422208
 20
-47.154229521
 30
0.000000000
 10
58.499028396
 20
-49.936336500
 30
0.000000000
  0
SPLINE
  5
A3D
330
A02
100
AcDbEntity
  8
path1
100
AcDbSpline
210
0
220
0
230
1
 70
8
 71
3
 72
8
 73
4
 74
0
 40
0.000000000
 40
0.000000000
 40
0.000000000
 40
0.000000000
 40
1.000000000
 40
1.000000000
 40
1.000000000
 40
1.000000000
 10
58.499028396
 20
-49.936336500
 30
0.000000000
 10
58.554778750
 20
-50.390374729
 30
0.000000000
 10
58.554818438
 20
-51.948744104
 30
0.000000000
 10
58.499028396
 20
-52.405780063
 30
0.000000000
  0
SPLINE
  5
A3E
330
A02
100
AcDbEntity
  8
path1
100
AcDbSpline
210
0
220
0
230
1
 70
8
 71
2
 72
6
 73
3
 74
0
 40
0.000000000
 40
0.000000000
 40
0.000000000
 40
1.000000000
 40
1.000000000
 40
1.000000000
 10
58.499028396
 20
-52.405780063
 30
0.000000000
 10
58.401432203
 20
-53.205321792
 30
0.000000000
 10
58.105259604
 20
-54.467230833
 30
0.000000000
  0
SPLINE
  5
A3F
330
A02
100
AcDbEntity
  8
path1
100
AcDbSpline
210
0
220
0
230
1
 70
8
 71
3
 72
8
 73
4
 74
0
 40
0.000000000
 40
0.000000000
 40
0.000000000
 40
0.000000000
 40
1.000000000
 40
1.000000000
 40
1.000000000
 40
1.000000000
 10
58.105259604
 20
-54.467230833
 30
0.000000000
 10
58.007625708
 20
-54.883124083
 30
0.000000000
 10
57.926901333
 20
-55.284319729
 30
0.000000000
 10
57.925874750
 20
-55.358776125
 30
0.000000000
  0
SPLINE
  5
A40
330
A02
100
AcDbEntity
  8
path1
100
AcDbSpline
210
0
220
0
230
1
 70
8
 71
2
 72
6
 73
3
 74
0
 40
0.000000000
 40
0.000000000
 40
0.000000000
 40
1.000000000
 40
1.000000000
 40
1.000000000
 10
57.925874750
 20
-55.358776125
 30
0.000000000
 10
57.925034036
 20
-55.494146880
 30
0.000000000
 10
58.013327479
 20
-55.629124729
 30
0.000000000
  0
SPLINE
  5
A41
330
A02
100
AcDbEntity
  8
path1
100
AcDbSpline
210
0
220
0
230
1
 70
8
 71
3
 72
8
 73
4
 74
0
 40
0.000000000
 40
0.000000000
 40
0.000000000
 40
0.000000000
 40
1.000000000
 40
1.000000000
 40
1.000000000
 40
1.000000000
 10
58.013327479
 20
-55.629124729
 30
0.000000000
 10
58.062452667
 20
-55.703358875
 30
0.000000000
 10
58.177136313
 20
-55.913350729
 30
0.000000000
 10
58.268176792
 20
-56.095770354
 30
0.000000000
  0
SPLINE
  5
A42
330
A02
100
AcDbEntity
  8
path1
100
AcDbSpline
210
0
220
0
230
1
 70
8
 71
3
 72
8
 73
4
 74
0
 40
0.000000000
 40
0.000000000
 40
0.000000000
 40
0.000000000
 40
1.000000000
 40
1.000000000
 40
1.000000000
 40
1.000000000
 10
58.268176792
 20
-56.095770354
 30
0.000000000
 10
58.359219917
 20
-56.278192625
 30
0.000000000
 10
58.510498083
 20
-56.562384229
 30
0.000000000
 10
58.604353729
 20
-56.727309604
 30
0.000000000
  0
SPLINE
  5
A43
330
A02
100
AcDbEntity
  8
path1
100
AcDbSpline
210
0
220
0
230
1
 70
8
 71
3
 72
8
 73
4
 74
0
 40
0.000000000
 40
0.000000000
 40
0.000000000
 40
0.000000000
 40
1.000000000
 40
1.000000000
 40
1.000000000
 40
1.000000000
 10
58.604353729
 20
-56.727309604
 30
0.000000000
 10
58.959932563
 20
-57.352144312
 30
0.000000000
 10
59.095105542
 20
-57.851831104
 30
0.000000000
 10
59.182978958
 20
-58.866285938
 30
0.000000000
  0
SPLINE
  5
A44
330
A02
100
AcDbEntity
  8
path1
100
AcDbSpline
210
0
220
0
230
1
 70
8
 71
3
 72
8
 73
4
 74
0
 40
0.000000000
 40
0.000000000
 40
0.000000000
 40
0.000000000
 40
1.000000000
 40
1.000000000
 40
1.000000000
 40
1.000000000
 10
59.182978958
 20
-58.866285938
 30
0.000000000
 10
59.211329062
 20
-59.193562292
 30
0.000000000
 10
59.249868271
 20
-59.512512208
 30
0.000000000
 10
59.268624583
 20
-59.575062354
 30
0.000000000
  0
SPLINE
  5
A45
330
A02
100
AcDbEntity
  8
path1
100
AcDbSpline
210
0
220
0
230
1
 70
8
 71
3
 72
8
 73
4
 74
0
 40
0.000000000
 40
0.000000000
 40
0.000000000
 40
0.000000000
 40
1.000000000
 40
1.000000000
 40
1.000000000
 40
1.000000000
 10
59.268624583
 20
-59.575062354
 30
0.000000000
 10
59.287378250
 20
-59.637612500
 30
0.000000000
 10
59.417730521
 20
-59.899550000
 30
0.000000000
 10
59.558295708
 20
-60.157145688
 30
0.000000000
  0
SPLINE
  5
A46
330
A02
100
AcDbEntity
  8
path1
100
AcDbSpline
210
0
220
0
230
1
 70
8
 71
3
 72
8
 73
4
 74
0
 40
0.000000000
 40
0.000000000
 40
0.000000000
 40
0.000000000
 40
1.000000000
 40
1.000000000
 40
1.000000000
 40
1.000000000
 10
59.558295708
 20
-60.157145688
 30
0.000000000
 10
59.698860896
 20
-60.414741375
 30
0.000000000
 10
59.900058000
 20
-60.784253167
 30
0.000000000
 10
60.005399208
 20
-60.978280063
 30
0.000000000
  0
SPLINE
  5
A47
330
A02
100
AcDbEntity
  8
path1
100
AcDbSpline
210
0
220
0
230
1
 70
8
 71
3
 72
8
 73
4
 74
0
 40
0.000000000
 40
0.000000000
 40
0.000000000
 40
0.000000000
 40
1.000000000
 40
1.000000000
 40
1.000000000
 40
1.000000000
 10
60.005399208
 20
-60.978280063
 30
0.000000000
 10
60.279150354
 20
-61.482496521
 30
0.000000000
 10
60.538905042
 20
-61.805669188
 30
0.000000000
 10
60.996176479
 20
-62.210944708
 30
0.000000000
  0
SPLINE
  5
A48
330
A02
100
AcDbEntity
  8
path1
100
AcDbSpline
210
0
220
0
230
1
 70
8
 71
3
 72
8
 73
4
 74
0
 40
0.000000000
 40
0.000000000
 40
0.000000000
 40
0.000000000
 40
1.000000000
 40
1.000000000
 40
1.000000000
 40
1.000000000
 10
60.996176479
 20
-62.210944708
 30
0.000000000
 10
61.573965625
 20
-62.723035167
 30
0.000000000
 10
61.818482958
 20
-62.894199417
 30
0.000000000
 10
62.384781250
 20
-63.182984188
 30
0.000000000
  0
SPLINE
  5
A49
330
A02
100
AcDbEntity
  8
path1
100
AcDbSpline
210
0
220
0
230
1
 70
8
 71
3
 72
8
 73
4
 74
0
 40
0.000000000
 40
0.000000000
 40
0.000000000
 40
0.000000000
 40
1.000000000
 40
1.000000000
 40
1.000000000
 40
1.000000000
 10
62.384781250
 20
-63.182984188
 30
0.000000000
 10
63.080230604
 20
-63.537623750
 30
0.000000000
 10
63.289867917
 20
-63.692801875
 30
0.000000000
 10
63.522997583
 20
-64.025499542
 30
0.000000000
  0
SPLINE
  5
A4A
330
A02
100
AcDbEntity
  8
path1
100
AcDbSpline
210
0
220
0
230
1
 70
8
 71
3
 72
8
 73
4
 74
0
 40
0.000000000
 40
0.000000000
 40
0.000000000
 40
0.000000000
 40
1.000000000
 40
1.000000000
 40
1.000000000
 40
1.000000000
 10
63.522997583
 20
-64.025499542
 30
0.000000000
 10
63.628227667
 20
-64.175677042
 30
0.000000000
 10
63.833962375
 20
-64.432550417
 30
0.000000000
 10
63.980184354
 20
-64.596330146
 30
0.000000000
  0
SPLINE
  5
A4B
330
A02
100
AcDbEntity
  8
path1
100
AcDbSpline
210
0
220
0
230
1
 70
8
 71
3
 72
8
 73
4
 74
0
 40
0.000000000
 40
0.000000000
 40
0.000000000
 40
0.000000000
 40
1.000000000
 40
1.000000000
 40
1.000000000
 40
1.000000000
 10
63.980184354
 20
-64.596330146
 30
0.000000000
 10
64.291583062
 20
-64.945125062
 30
0.000000000
 10
64.439688875
 20
-65.223810688
 30
0.000000000
 10
64.496513438
 20
-65.567890729
 30
0.000000000
  0
SPLINE
  5
A4C
330
A02
100
AcDbEntity
  8
path1
100
AcDbSpline
210
0
220
0
230
1
 70
8
 71
3
 72
8
 73
4
 74
0
 40
0.000000000
 40
0.000000000
 40
0.000000000
 40
0.000000000
 40
1.000000000
 40
1.000000000
 40
1.000000000
 40
1.000000000
 10
64.496513438
 20
-65.567890729
 30
0.000000000
 10
64.532719021
 20
-65.787127125
 30
0.000000000
 10
64.529178896
 20
-65.849277750
 30
0.000000000
 10
64.466319188
 20
-66.097848500
 30
0.000000000
  0
SPLINE
  5
A4D
330
A02
100
AcDbEntity
  8
path1
100
AcDbSpline
210
0
220
0
230
1
 70
8
 71
3
 72
8
 73
4
 74
0
 40
0.000000000
 40
0.000000000
 40
0.000000000
 40
0.000000000
 40
1.000000000
 40
1.000000000
 40
1.000000000
 40
1.000000000
 10
64.466319188
 20
-66.097848500
 30
0.000000000
 10
64.259467937
 20
-66.915836979
 30
0.000000000
 10
63.669968333
 20
-67.662660479
 30
0.000000000
 10
62.730123354
 20
-68.297403833
 30
0.000000000
  0
SPLINE
  5
A4E
330
A02
100
AcDbEntity
  8
path1
100
AcDbSpline
210
0
220
0
230
1
 70
8
 71
3
 72
8
 73
4
 74
0
 40
0.000000000
 40
0.000000000
 40
0.000000000
 40
0.000000000
 40
1.000000000
 40
1.000000000
 40
1.000000000
 40
1.000000000
 10
62.730123354
 20
-68.297403833
 30
0.000000000
 10
62.237048500
 20
-68.630411062
 30
0.000000000
 10
61.650977896
 20
-68.948387313
 30
0.000000000
 10
60.341787813
 20
-69.593211292
 30
0.000000000
  0
SPLINE
  5
A4F
330
A02
100
AcDbEntity
  8
path1
100
AcDbSpline
210
0
220
0
230
1
 70
8
 71
3
 72
8
 73
4
 74
0
 40
0.000000000
 40
0.000000000
 40
0.000000000
 40
0.000000000
 40
1.000000000
 40
1.000000000
 40
1.000000000
 40
1.000000000
 10
60.341787813
 20
-69.593211292
 30
0.000000000
 10
56.899918479
 20
-71.288454917
 30
0.000000000
 10
56.080601792
 20
-71.843278229
 30
0.000000000
 10
53.796647021
 20
-74.025434563
 30
0.000000000
  0
SPLINE
  5
A50
330
A02
100
AcDbEntity
  8
path1
100
AcDbSpline
210
0
220
0
230
1
 70
8
 71
3
 72
8
 73
4
 74
0
 40
0.000000000
 40
0.000000000
 40
0.000000000
 40
0.000000000
 40
1.000000000
 40
1.000000000
 40
1.000000000
 40
1.000000000
 10
53.796647021
 20
-74.025434563
 30
0.000000000
 10
53.297367687
 20
-74.502462437
 30
0.000000000
 10
52.747859854
 20
-75.010115833
 30
0.000000000
 10
52.575520854
 20
-75.153554396
 30
0.000000000
  0
SPLINE
  5
A51
330
A02
100
AcDbEntity
  8
path1
100
AcDbSpline
210
0
220
0
230
1
 70
8
 71
3
 72
8
 73
4
 74
0
 40
0.000000000
 40
0.000000000
 40
0.000000000
 40
0.000000000
 40
1.000000000
 40
1.000000000
 40
1.000000000
 40
1.000000000
 10
52.575520854
 20
-75.153554396
 30
0.000000000
 10
51.996168021
 20
-75.635749583
 30
0.000000000
 10
51.301710854
 20
-76.050544813
 30
0.000000000
 10
50.624861708
 20
-76.318670917
 30
0.000000000
  0
SPLINE
  5
A52
330
A02
100
AcDbEntity
  8
path1
100
AcDbSpline
210
0
220
0
230
1
 70
8
 71
3
 72
8
 73
4
 74
0
 40
0.000000000
 40
0.000000000
 40
0.000000000
 40
0.000000000
 40
1.000000000
 40
1.000000000
 40
1.000000000
 40
1.000000000
 10
50.624861708
 20
-76.318670917
 30
0.000000000
 10
50.221559979
 20
-76.478434271
 30
0.000000000
 10
49.528759104
 20
-76.664566000
 30
0.000000000
 10
49.280471458
 20
-76.679861562
 30
0.000000000
  0
SPLINE
  5
A53
330
A02
100
AcDbEntity
  8
path1
100
AcDbSpline
210
0
220
0
230
1
 70
8
 71
3
 72
8
 73
4
 74
0
 40
0.000000000
 40
0.000000000
 40
0.000000000
 40
0.000000000
 40
1.000000000
 40
1.000000000
 40
1.000000000
 40
1.000000000
 10
49.280471458
 20
-76.679861563
 30
0.000000000
 10
48.789285729
 20
-76.710121958
 30
0.000000000
 10
48.555865021
 20
-76.712579938
 30
0.000000000
 10
48.195679792
 20
-76.691294208
 30
0.000000000
  0
SPLINE
  5
A54
330
A02
100
AcDbEntity
  8
path1
100
AcDbSpline
210
0
220
0
230
1
 70
8
 71
1
 72
4
 73
2
 74
0
 40
0.000000000
 40
0.000000000
 40
0.002300000
 40
0.002300000
 10
48.195679792
 20
-76.691294208
 30
0.000000000
 10
48.195740646
 20
-76.691294208
 30
0.000000000
  0
ENDSEC
  0
SECTION
  2
OBJECTS
  0
DICTIONARY
  5
F000
330
0
100
AcDbDictionary
  3
ACAD_GROUP
350
F001
  0
DICTIONARY
  5
F001
330
F000
100
AcDbDictionary
  0
ENDSEC
  0
EOF